<svg xmlns="http://www.w3.org/2000/svg" xmlns:xlink="http://www.w3.org/1999/xlink" version="1.1" x="0px" y="0px" viewBox="0 0 100 125" enable-background="new 0 0 100 100" xml:space="preserve"><g><g><path fill="none" stroke="#000000" stroke-linecap="round" stroke-linejoin="round" stroke-miterlimit="10" d="M82.641,21.241    c2.488,0.033,3.24,0.57,3.125,3.25c-0.098,2.307,0.156,4.432,0,6.752c-0.188,2.811,0.09,4.941-0.094,7.342    c-0.26,3.406-0.074,5.326-0.152,8.146c-0.078,2.83,0.191,4.691,0.246,7.637c0.045,2.41,0.197,4.713,0.098,7.1    c-0.09,2.178,0.396,4.521,0.021,6.648c-0.363,2.049-1.209,2.326-2.619,2.5h-3c-1.25,0-2.99,0.033-3.938,0    c-2.633-0.096-5.131-0.234-7.781-0.25c-10.492-0.068-20.996,0-31.51,0c-4.062,0-8.102,0.457-12.18,0.131    c-2.215-0.178-8.842-0.006-8.842-0.006c-2.045-0.188-1.619-2.652-1.625-4.998c-0.004-2.449-0.113-4.709,0.004-7.127    c0.148-3.088,0.156-6.227,0.121-9.34c-0.031-2.973-0.193-6.287-0.367-9.262c-0.127-2.15,0.021-4.152,0.125-6.502    c0.088-2.043-0.215-3.871-0.035-5.896c0.125-1.412-0.598-3.752-0.076-5c0.617-1.477,2.564-1.234,3.729-1.25h1.875    c6.562,0.25,14.002,0.248,20.562,0c4.445-0.17,8.498,0.188,13.062,0c5.049-0.209,10.086,0.254,15.117,0.25    c3.57-0.004,7.09-0.357,10.633-0.375L82.641,21.241z"/><path fill="none" stroke="#000000" stroke-linecap="round" stroke-linejoin="round" stroke-miterlimit="10" d="M14.516,63.866    c1.654,0.633,4.57,0.186,6.375,0.188c3.744,0,7.486-0.107,11.133-0.188c4.43-0.098,9.605,0.346,13.992,0.264    c5.188-0.098,9.543-0.473,14.562-0.473c8.551-0.002,16.631,0.129,25.166,0.475c0.02,0.182,0.086,0.312,0.146,0.484"/><path fill="none" stroke="#000000" stroke-linecap="round" stroke-linejoin="round" stroke-miterlimit="10" d="M17.391,60.491    c1.088,0.326,2.453,0.078,3.619,0.125c2.096,0.084,5.342-0.227,7.465-0.209c5.857,0.049,10.545,0.584,16.422,0.584    c11.832,0,23.639-0.25,35.502-0.25c0.664,0,1.842,0.188,2.506,0.188c0,0-0.018-11.49-0.014-16.064    c0.006-4.676-0.43-9.389-0.004-14c0.113-1.227-0.371-6.248-0.371-6.248c-2.062,0.062-6.031-0.25-8.475-0.25    c-5.699,0-11.34,0.504-17.055,0.375c-6.514-0.148-13.09-0.521-19.623-0.258c-4.496,0.184-8.814-0.119-13.348-0.293    c-1.926-0.072-4.688-0.098-7.035-0.025l0.16,2.576c0-0.045,0-0.455,0-0.27c0,1.449,0.057,2.842-0.002,4.238    c-0.203,4.883-0.26,10.043,0.125,14.908c0.172,2.191,0.076,3.809,0.064,6.186c-0.01,2.029,0.062,4.945,0.062,6.688V60.491z"/><path fill="none" stroke="#000000" stroke-linecap="round" stroke-linejoin="round" stroke-miterlimit="10" d="M43.141,70.741    c0.174,1.795,0.129,4.148-1.381,5.471c-0.498,0.438-2.004,1.041-2.244,1.682c-0.5,1.338,1.506,0.949,2.375,0.982    c5.434,0.213,10.93,0.197,16.383-0.254c0.74-0.062,3.332,0.156,3.496-0.506c0.221-0.893-2.264-1.543-2.723-2.125    c-1.246-1.58-1.146-3.5-1.406-5.375"/></g></g><g><path fill="none" stroke="#000000" stroke-linecap="round" stroke-linejoin="round" stroke-miterlimit="10" d="M62.193,41.652   c-1.449,0.669-2.829,1.16-4.314,1.813c-1.316,0.578-2.759,0.945-4.053,1.508c-0.991,0.432-2.098,0.732-3.026,1.091l-0.739,0.369   c-0.905-0.378-3.17-1.498-4.272-1.901c-1.686-0.618-3.533-1.149-5.159-1.804c-1.158-0.467-2.226-1.048-3.418-1.482   c-1.12-0.407-2.314-0.928-3.397-1.238l-0.886-0.516c1.248-0.414,2.195-0.981,3.346-1.383c1.505-0.526,2.784-1.028,4.181-1.718   c0.762-0.378,3.596-1.464,4.215-1.698c1.486-0.563,5.243-2.142,5.243-2.142s11.7,4.73,13.291,5.463   c1.381,0.636,2.871,0.664,3.869,1.672C67.072,39.687,63.296,41.144,62.193,41.652z"/><path fill="none" stroke="#000000" stroke-linecap="round" stroke-linejoin="round" stroke-miterlimit="10" d="M58.405,45.809   c-1.251,0.767-8.124,3.249-8.124,3.249c-0.487-0.337-1.421-0.454-2.095-0.672c-0.814-0.265-7.431-3.24-7.431-3.24   c-0.155,2.01-0.026,6.341-0.026,6.341s2.527,1.773,3.439,1.985c1.641,0.382,2.959,0.978,4.682,0.978   c3.196,0,6.118,0.051,8.897-1.717c0.409-0.26,1.838-1.605,1.838-1.605c-0.001-0.526-0.104-2.306-0.069-2.881   c0.05-0.852,0.028-2.158-0.226-2.953L58.405,45.809z"/><path fill="none" stroke="#000000" stroke-linecap="round" stroke-linejoin="round" stroke-miterlimit="10" d="M64.829,40.565   c0.166,1.289-0.003,2.776,0,4.023"/><path fill="none" stroke="#000000" stroke-linecap="round" stroke-linejoin="round" stroke-miterlimit="10" d="M64.829,44.588   c-0.082,0.527-0.633,1.365-0.934,1.85c0.646-0.009,1.294-0.011,1.94,0.001c-0.218-0.497-0.434-0.978-0.711-1.408L64.829,44.588z"/></g><text x="0" y="115" fill="#000000" font-size="5px" font-weight="bold" font-family="'Helvetica Neue', Helvetica, Arial-Unicode, Arial, Sans-serif">Created by Linseed Studio</text><text x="0" y="120" fill="#000000" font-size="5px" font-weight="bold" font-family="'Helvetica Neue', Helvetica, Arial-Unicode, Arial, Sans-serif">from the Noun Project</text></svg>